<svg xmlns="http://www.w3.org/2000/svg" viewBox="0 0 1000.88 305.88"><defs><style>.cls-1{fill:#231f20;}.cls-2{opacity:0.1;}.cls-3{opacity:0.5;}</style></defs><g id="Layer_2" data-name="Layer 2"><g id="Nebula_logo" data-name="Nebula logo"><path class="cls-1" d="M396.31,122.52h23.83v11.61a27.33,27.33,0,0,1,7.68-7.67c5.9-4.34,15-6.89,22.64-6.89,11.22,0,20.87,5.11,25.79,11.81,6.11,8.27,6.11,18.9,6.11,31.7V221H458.52V170.71c0-7.29-.34-11.94-1-14.93-2.17-8.66-7.82-13.18-15.5-13.18a20.66,20.66,0,0,0-18.11,11c-3.74,7.28-3.74,17.33-3.74,24.61V221H396.31Z"/><path class="cls-1" d="M599.92,198.92c-12.21,16.34-28,25-48,25-25.79,0-50.6-16.34-50.6-52.57,0-33.08,21.27-51.78,49-51.78,26,0,36.82,15.55,38.79,18.5,8.07,11.42,9.84,28.55,10,38.4H526.28c2.75,15.56,12.4,24.42,28,24.42,16.14,0,22.64-9.46,25.6-13.59Zm-26.78-39.78c-2.17-15.36-11.62-20.67-22-20.67-12.61,0-21.27,7.28-24,20.67Z"/><path class="cls-1" d="M830.33,122.52V221H806.7v-10c-4.13,3.94-13.78,12.4-31.89,12.4-16.15,0-23.83-6.89-27.38-11.42-6.69-8.47-6.69-17.72-6.69-32.49v-56.9h23.83V179c0,3.94,0,7.28.78,9.85,2.56,8.66,9.65,12.4,18.31,12.4a21.69,21.69,0,0,0,19.1-10.44c3.55-6.49,3.75-12.8,3.94-26.58V122.52Z"/><path class="cls-1" d="M878.18,82V221H854.35V82Z"/><path class="cls-1" d="M670,119.58a51.47,51.47,0,0,0-28.07,8.24V82H618.05V221h23.83v-5.91A51.88,51.88,0,1,0,670,119.58Zm0,79.92a28,28,0,1,1,28-28.05A28,28,0,0,1,670,199.5Z"/><path class="cls-1" d="M977.05,122.52v5.3a51.88,51.88,0,1,0,0,87.26V221h23.83V122.52ZM949,199.5a28,28,0,1,1,28.08-28.05A28,28,0,0,1,949,199.5Z"/><path class="cls-2" d="M147.76,173.85A24.15,24.15,0,1,1,123.61,132l111.54-64.4a24.15,24.15,0,0,1,24.15,41.83Z"/><path class="cls-2" d="M36.23,109.46A24.15,24.15,0,1,1,12.08,67.63L123.61,3.24a24.15,24.15,0,0,1,24.15,41.83Z"/><path class="cls-2" d="M147.76,302.64a24.15,24.15,0,1,1-24.15-41.83l111.54-64.39a24.15,24.15,0,1,1,24.15,41.82Z"/><path class="cls-2" d="M36.23,238.24a24.15,24.15,0,1,1-24.15-41.82L123.61,132a24.15,24.15,0,0,1,24.15,41.83Z"/><path class="cls-2" d="M159.84,152.94a24.15,24.15,0,0,1-48.3,0V24.15a24.15,24.15,0,0,1,48.3,0Z"/><path class="cls-2" d="M271.37,217.33a24.15,24.15,0,0,1-48.3,0V88.54a24.15,24.15,0,0,1,48.3,0Z"/><path class="cls-2" d="M48.3,217.34a24.15,24.15,0,1,1-48.3,0V88.55a24.15,24.15,0,1,1,48.3,0Z"/><path class="cls-2" d="M159.83,281.73a24.15,24.15,0,0,1-48.29,0V152.94a24.15,24.15,0,1,1,48.29,0Z"/><path class="cls-2" d="M147.76,132a24.15,24.15,0,0,1-24.14,41.83L12.08,109.45A24.15,24.15,0,1,1,36.23,67.63Z"/><path class="cls-2" d="M259.3,67.63a24.15,24.15,0,0,1-24.15,41.83L123.61,45.07A24.15,24.15,0,0,1,147.76,3.24Z"/><path class="cls-2" d="M147.76,260.81a24.15,24.15,0,0,1-24.14,41.83L12.08,238.24a24.15,24.15,0,1,1,24.15-41.82Z"/><path class="cls-2" d="M259.3,196.42a24.15,24.15,0,0,1-24.15,41.83l-111.54-64.4A24.15,24.15,0,1,1,147.76,132Z"/><path class="cls-3" d="M271.37,217.33a24.15,24.15,0,0,1-48.3,0V88.54a24.15,24.15,0,0,1,48.3,0Z"/><path class="cls-3" d="M159.84,281.73a24.15,24.15,0,0,1-48.3,0V152.94a24.15,24.15,0,0,1,48.3,0Z"/><path class="cls-3" d="M259.3,196.42a24.15,24.15,0,1,1-24.15,41.83l-111.54-64.4A24.15,24.15,0,1,1,147.76,132Z"/></g></g></svg>